<svg width="273" height="213" viewBox="0 0 273 213" fill="none" xmlns="http://www.w3.org/2000/svg">
<path d="M140 190C189.706 190 230 149.706 230 100C230 50.2944 189.706 10 140 10C90.2944 10 50 50.2944 50 100C50 149.706 90.2944 190 140 190Z" fill="#FEC43C"/>
<path d="M12.6087 113H130.391C131.879 113 133.305 113.492 134.357 114.367C135.409 115.242 136 116.429 136 117.667V164.333C136 165.571 135.409 166.758 134.357 167.633C133.305 168.508 131.879 169 130.391 169H74.3043L57.4783 183L54.6739 169H12.6087C11.1212 169 9.69458 168.508 8.64275 167.633C7.59091 166.758 7 165.571 7 164.333V117.667C7 116.429 7.59091 115.242 8.64275 114.367C9.69458 113.492 11.1212 113 12.6087 113Z" fill="#FFB7C3" stroke="#1E1E1E" stroke-width="4" stroke-linejoin="round"/>
<path d="M262.195 32.057H146.805C145.348 32.057 143.95 32.5338 142.919 33.3826C141.889 34.2313 141.31 35.3824 141.31 36.5827V81.8401C141.31 83.0404 141.889 84.1915 142.919 85.0403C143.95 85.889 145.348 86.3658 146.805 86.3658H201.753L218.237 99.943L220.984 86.3658H262.195C263.652 86.3658 265.05 85.889 266.081 85.0403C267.111 84.1915 267.69 83.0404 267.69 81.8401V36.5827C267.69 35.3824 267.111 34.2313 266.081 33.3826C265.05 32.5338 263.652 32.057 262.195 32.057Z" fill="#A8B88B" stroke="#1E1E1E" stroke-width="4" stroke-linejoin="round"/>
</svg>
